<svg width="95" height="98" viewBox="0 0 95 98" fill="none" xmlns="http://www.w3.org/2000/svg">
<rect x="6.9987" y="12" width="82" height="86" rx="22" fill="#73B7FD"/>
<rect width="95" height="89" rx="22.5" fill="url(#paint0_linear)"/>
<path fill-rule="evenodd" clip-rule="evenodd" d="M77.0931 69.5663C77.6044 69.0549 77.8345 68.4541 77.7834 67.7637C77.4511 61.0649 75.9172 54.6536 73.1817 48.5301C70.4463 42.4065 66.6882 36.9669 61.9076 32.2112C57.1525 27.4299 51.7136 23.6714 45.5908 20.9356C39.468 18.1998 33.0576 16.6657 26.3596 16.3333H26.2446C25.5799 16.3333 25.0175 16.5634 24.5573 17.0237C24.046 17.4839 23.7904 18.072 23.7904 18.7879V24.2723C23.7904 24.9115 24.0141 25.4676 24.4614 25.9406C24.9088 26.4136 25.4521 26.6629 26.0912 26.6884C31.5877 27.0208 36.8093 28.3248 41.7561 30.6004C46.7029 32.8759 50.9978 35.8355 54.6408 39.4789C58.2838 43.1224 61.2429 47.4179 63.5182 52.3653C65.7935 57.3127 67.0845 62.535 67.3913 68.0322C67.4168 68.6714 67.6661 69.2147 68.139 69.6622C68.612 70.1096 69.1808 70.3333 69.8455 70.3333H75.3292C76.045 70.3333 76.633 70.0777 77.0931 69.5663ZM58.1496 67.687C58.2007 68.4029 57.9834 69.0166 57.4977 69.5279C57.0375 70.0649 56.4367 70.3333 55.6953 70.3333H50.5185C49.8793 70.3333 49.3297 70.1224 48.8695 69.7005C48.4094 69.2786 48.1537 68.7481 48.1026 68.1089C47.5401 62.2538 45.1818 57.2488 41.0275 53.094C36.8732 48.9392 31.8689 46.5805 26.0145 46.018C25.3754 45.9669 24.8449 45.7112 24.4231 45.2509C24.0013 44.7907 23.7904 44.241 23.7904 43.6018V38.4242C23.7904 37.6828 24.0588 37.0819 24.5957 36.6217C25.0303 36.187 25.5799 35.9697 26.2446 35.9697H26.4363C30.5267 36.3021 34.4381 37.3312 38.1706 39.0571C41.9031 40.7829 45.2137 43.1032 48.1026 46.018C51.017 48.9072 53.337 52.2183 55.0626 55.9512C56.7882 59.6842 57.8172 63.5961 58.1496 67.687ZM38.5157 62.9697C38.5157 65.0152 37.7999 66.7538 36.3683 68.1856C34.9367 69.6174 33.1982 70.3333 31.1531 70.3333C29.1079 70.3333 27.3695 69.6174 25.9378 68.1856C24.5062 66.7538 23.7904 65.0152 23.7904 62.9697C23.7904 60.9242 24.5062 59.1856 25.9378 57.7538C27.3695 56.322 29.1079 55.6061 31.1531 55.6061C33.1982 55.6061 34.9367 56.322 36.3683 57.7538C37.7999 59.1856 38.5157 60.9242 38.5157 62.9697Z" fill="white"/>
<defs>
<linearGradient id="paint0_linear" x1="127.789" y1="47.9948" x2="54.0171" y2="-34.6315" gradientUnits="userSpaceOnUse">
<stop stop-color="#4895F2"/>
<stop offset="1" stop-color="#167DFB"/>
</linearGradient>
</defs>
</svg>
